<?xml version="1.0" encoding="UTF-8" standalone="no"?>
<svg
   xmlns:dc="http://purl.org/dc/elements/1.1/"
   xmlns:cc="http://creativecommons.org/ns#"
   xmlns:rdf="http://www.w3.org/1999/02/22-rdf-syntax-ns#"
   xmlns:svg="http://www.w3.org/2000/svg"
   xmlns="http://www.w3.org/2000/svg"
   xmlns:sodipodi="http://sodipodi.sourceforge.net/DTD/sodipodi-0.dtd"
   xmlns:inkscape="http://www.inkscape.org/namespaces/inkscape"
   id="Layer_1"
   enable-background="new 0 0 502.777 502.777"
   height="512"
   viewBox="0 0 502.777 502.777"
   width="512"
   version="1.1"
   sodipodi:docname="mortar.svg"
   inkscape:version="1.0.1 (3bc2e813f5, 2020-09-07)">
  <metadata
     id="metadata888">
    <rdf:RDF>
      <cc:Work
         rdf:about="">
        <dc:format>image/svg+xml</dc:format>
        <dc:type
           rdf:resource="http://purl.org/dc/dcmitype/StillImage" />
      </cc:Work>
    </rdf:RDF>
  </metadata>
  <defs
     id="defs886" />
  <sodipodi:namedview
     pagecolor="#ffffff"
     bordercolor="#666666"
     borderopacity="1"
     objecttolerance="10"
     gridtolerance="10"
     guidetolerance="10"
     inkscape:pageopacity="0"
     inkscape:pageshadow="2"
     inkscape:window-width="3200"
     inkscape:window-height="1721"
     id="namedview884"
     showgrid="false"
     inkscape:zoom="1.6210938"
     inkscape:cx="287.46024"
     inkscape:cy="256"
     inkscape:window-x="2391"
     inkscape:window-y="-9"
     inkscape:window-maximized="1"
     inkscape:current-layer="Layer_1" />
  <g
     id="g881"
     style="fill:#1f5d6f;fill-opacity:1">
    <path
       d="m484.67 93.207c8.852-13.379 11.962-29.403 8.761-45.121-3.202-15.719-12.333-29.249-25.712-38.1s-29.405-11.96-45.121-8.76c-15.719 3.201-29.249 12.333-38.099 25.711l-91.81 138.78h144.011z"
       id="path875"
       style="fill:#1f5d6f;fill-opacity:1" />
    <path
       d="m111.448 412.614v75.162c0 8.284 6.716 15 15 15h237.74c8.284 0 15-6.716 15-15v-75.162c-40.255 23.326-86.103 35.771-133.87 35.771s-93.615-12.444-133.87-35.771z"
       id="path877"
       style="fill:#1f5d6f;fill-opacity:1" />
    <path
       d="m8.119 195.718c7.768 124.087 111.188 222.667 237.199 222.667s229.432-98.58 237.199-222.667z"
       id="path879"
       style="fill:#1f5d6f;fill-opacity:1" />
  </g>
</svg>
